# xmcd CD database file
#
# Track frame offsets:
#	150
#	25750
#	45537
#	67904
#	90978
#	113078
#	133985
#	160964
#	180656
#	207378
#	226610
#	248825
#	268184
#	291586
#
# Disc length: 4239 seconds
#
# Revision: 4
# Processed by: cddbd v1.5.1PL0 Copyright (c) Steve Scherf et al.
# Submitted via: CDex 1.51
#
DISCID=c2108d0e
DTITLE=UA - AMETORA
DYEAR=1998
DGENRE=Japan Rock
TTITLE0=悲しみジョニー
TTITLE1=青空
TTITLE2=あめふりヒヤデス
TTITLE3=忘れない
TTITLE4=夜の風
TTITLE5=歪んだ太陽
TTITLE6=恋人
TTITLE7=TORO
TTITLE8=貴方の一番好きな歌
TTITLE9=空耳ばかり
TTITLE10=アントニオの歌
TTITLE11=親子バシャバシャ
TTITLE12=ミルクティー
TTITLE13=2人
EXTD=YEAR: 1998
EXTT0=
EXTT1=
EXTT2=
EXTT3=
EXTT4=
EXTT5=
EXTT6=
EXTT7=
EXTT8=
EXTT9=
EXTT10=
EXTT11=
EXTT12=
EXTT13=
PLAYORDER=
